<?xml version="1.0" encoding="utf-8"?>
<!-- Generator: Adobe Illustrator 19.2.1, SVG Export Plug-In . SVG Version: 6.00 Build 0)  -->
<svg version="1.1" id="Layer_1" xmlns="http://www.w3.org/2000/svg" xmlns:xlink="http://www.w3.org/1999/xlink" x="0px" y="0px"
	 width="100px" height="10px" viewBox="0 0 100 10" style="enable-background:new 0 0 100 10;" xml:space="preserve">
<style type="text/css">
	.st0{fill:#231F20;}
</style>
<g>
	<g>
		<g>
			<path d="M7.918,3.963c0,0.265-0.035,0.498-0.104,0.7c-0.069,0.202-0.16,0.376-0.272,0.523c-0.113,0.147-0.239,0.269-0.38,0.367
				C7.02,5.651,6.877,5.729,6.733,5.786l1.055,2.239H6.163L5.194,5.959H2.022v2.066H0.5V1.974h5.438
				c0.161,0,0.356,0.029,0.583,0.086c0.228,0.058,0.445,0.16,0.653,0.307c0.207,0.147,0.383,0.349,0.527,0.605
				S7.918,3.559,7.918,3.963z M6.396,3.963c0-0.144-0.026-0.261-0.078-0.35c-0.052-0.09-0.115-0.159-0.19-0.208
				C6.053,3.356,5.977,3.323,5.899,3.305c-0.078-0.017-0.14-0.026-0.186-0.026H2.022v1.375h3.691c0.035,0,0.089-0.01,0.164-0.03
				s0.151-0.056,0.229-0.108c0.078-0.052,0.146-0.123,0.203-0.212C6.367,4.215,6.396,4.101,6.396,3.963z"/>
			<path d="M17.998,5c0,0.438-0.084,0.852-0.251,1.241c-0.167,0.389-0.406,0.73-0.717,1.024c-0.311,0.294-0.689,0.527-1.133,0.7
				c-0.444,0.173-0.942,0.26-1.496,0.26c-0.553,0-1.052-0.087-1.496-0.26c-0.444-0.173-0.823-0.406-1.137-0.7
				c-0.314-0.294-0.555-0.635-0.722-1.024C10.88,5.851,10.796,5.438,10.796,5V1.974h1.521V5c0,0.259,0.042,0.506,0.125,0.739
				c0.084,0.233,0.21,0.44,0.38,0.618c0.17,0.179,0.386,0.32,0.648,0.424c0.262,0.104,0.572,0.155,0.929,0.155
				s0.666-0.052,0.925-0.155c0.259-0.104,0.474-0.245,0.644-0.424c0.17-0.178,0.297-0.385,0.38-0.618
				c0.084-0.233,0.125-0.48,0.125-0.739V1.974h1.522V5z"/>
			<path d="M21.049,8.026V1.974h7.288v1.305h-5.766v1.089h5.075v1.176h-5.075V6.72h5.991v1.305H21.049z"/>
		</g>
		<g>
			<path d="M57.904,6.072c0,0.3-0.081,0.582-0.242,0.847c-0.162,0.265-0.41,0.497-0.744,0.696c-0.334,0.199-0.752,0.355-1.254,0.467
				C55.163,8.194,54.57,8.25,53.884,8.25c-0.352,0-0.712-0.029-1.081-0.086c-0.317-0.046-0.666-0.118-1.046-0.216
				c-0.38-0.098-0.75-0.239-1.107-0.424l0.527-1.21c0.317,0.161,0.635,0.287,0.955,0.376c0.32,0.09,0.609,0.154,0.869,0.195
				c0.305,0.046,0.599,0.072,0.882,0.078c0.864,0,1.508-0.078,1.932-0.233c0.424-0.156,0.635-0.36,0.635-0.614
				c0-0.161-0.066-0.279-0.199-0.355c-0.133-0.075-0.337-0.118-0.614-0.13c-0.063-0.006-0.183-0.013-0.359-0.022
				c-0.176-0.008-0.391-0.019-0.644-0.03c-0.253-0.011-0.536-0.023-0.847-0.035c-0.311-0.012-0.634-0.026-0.968-0.043
				c-0.334-0.017-0.641-0.064-0.921-0.138c-0.28-0.075-0.522-0.183-0.726-0.324c-0.205-0.141-0.365-0.314-0.48-0.519
				c-0.115-0.204-0.173-0.445-0.173-0.722s0.091-0.537,0.272-0.782c0.181-0.245,0.44-0.458,0.778-0.64
				c0.337-0.182,0.746-0.324,1.228-0.428c0.481-0.104,1.018-0.156,1.612-0.156c0.352,0,0.709,0.026,1.072,0.078
				c0.311,0.046,0.659,0.112,1.042,0.199c0.383,0.086,0.757,0.213,1.12,0.38l-0.458,1.193c-0.178-0.075-0.38-0.147-0.605-0.216
				c-0.225-0.069-0.46-0.13-0.705-0.181c-0.245-0.052-0.493-0.092-0.744-0.121c-0.25-0.029-0.491-0.043-0.722-0.043
				c-0.346,0-0.667,0.016-0.964,0.048c-0.297,0.032-0.555,0.079-0.774,0.142c-0.219,0.064-0.391,0.141-0.515,0.233
				c-0.124,0.092-0.186,0.196-0.186,0.311c0,0.15,0.063,0.262,0.19,0.337c0.127,0.075,0.314,0.118,0.562,0.13
				c0.276,0.012,0.665,0.029,1.167,0.052c0.501,0.023,1.095,0.049,1.781,0.078c0.346,0.017,0.656,0.064,0.929,0.138
				c0.274,0.075,0.507,0.182,0.7,0.32c0.193,0.138,0.341,0.308,0.445,0.51C57.852,5.582,57.904,5.812,57.904,6.072z"/>
			<path d="M60.739,8.026V1.974h7.288v1.305h-5.766v1.089h5.075v1.176h-5.075V6.72h5.991v1.305H60.739z"/>
			<path d="M71.217,8.026V1.974h1.522v6.051H71.217z"/>
			<path d="M81.816,8.026l-4.374-4.227v4.227h-1.522V1.974h1.522l4.374,4.227V1.974h1.521v6.051H81.816z"/>
			<path d="M86.519,8.026V1.974h7.288v1.305H88.04v1.089h5.075v1.176H88.04V6.72h5.991v1.305H86.519z"/>
		</g>
		<g>
			<path d="M38.66,5.188c0,0.235-0.048,0.456-0.144,0.664c-0.096,0.208-0.236,0.39-0.42,0.545c-0.184,0.155-0.41,0.277-0.677,0.366
				c-0.267,0.09-0.573,0.134-0.919,0.134h-2.365v-3.42h2.365c0.345,0,0.651,0.045,0.919,0.134c0.267,0.09,0.493,0.212,0.677,0.366
				c0.184,0.155,0.324,0.337,0.42,0.545C38.612,4.732,38.66,4.953,38.66,5.188z M37.756,5.188c0-0.137-0.025-0.266-0.076-0.389
				c-0.05-0.122-0.129-0.228-0.235-0.318c-0.106-0.09-0.239-0.16-0.398-0.213c-0.16-0.052-0.349-0.078-0.567-0.078h-1.485v1.994
				h1.485c0.218,0,0.407-0.026,0.567-0.078c0.159-0.052,0.292-0.123,0.398-0.213c0.106-0.09,0.184-0.195,0.235-0.318
				S37.756,5.325,37.756,5.188z"/>
			<path d="M40.273,6.898v-3.42h4.119v0.738h-3.259v0.616h2.868v0.664h-2.868V6.16h3.386v0.738H40.273z"/>
		</g>
	</g>
	<g id="g2226_27_" transform="translate(-101.9411,229.36748)">
		<path class="st0" d="M200.313-227.81c-0.623,0-1.128,0.505-1.128,1.128c0,0.623,0.505,1.128,1.128,1.128s1.128-0.505,1.128-1.128
			C201.441-227.306,200.936-227.81,200.313-227.81z M200.313-225.743c-0.519,0-0.94-0.421-0.94-0.94s0.421-0.94,0.94-0.94
			s0.94,0.421,0.94,0.94S200.832-225.743,200.313-225.743z"/>
		<path class="st0" d="M200.835-226.067c-0.002-0.004-0.02-0.032-0.039-0.063c-0.019-0.031-0.057-0.091-0.083-0.134
			c-0.072-0.116-0.116-0.179-0.16-0.23c-0.047-0.054-0.067-0.071-0.115-0.095l-0.027-0.014l0.014-0.002
			c0.107-0.013,0.177-0.046,0.239-0.112c0.06-0.064,0.091-0.14,0.091-0.226c0-0.051-0.008-0.086-0.031-0.134
			c-0.017-0.035-0.036-0.062-0.063-0.09c-0.055-0.056-0.116-0.082-0.219-0.095c-0.067-0.008-0.087-0.009-0.353-0.01l-0.267-0.001
			v0.606v0.606h0.097h0.097v-0.257v-0.257l0.072,0c0.097,0,0.133,0.005,0.171,0.024c0.044,0.022,0.09,0.072,0.146,0.156
			c0.035,0.053,0.048,0.075,0.133,0.226c0.007,0.012,0.016,0.028,0.02,0.036s0.016,0.028,0.025,0.044l0.016,0.029h0.12h0.12
			L200.835-226.067z M200.35-226.746c-0.021,0.003-0.06,0.004-0.18,0.005l-0.153,0.001v-0.184v-0.184l0.16,0.001
			c0.129,0.001,0.166,0.002,0.189,0.005c0.041,0.005,0.063,0.012,0.09,0.026c0.045,0.023,0.075,0.06,0.087,0.11
			c0.004,0.017,0.005,0.024,0.004,0.048c-0.002,0.049-0.016,0.081-0.05,0.115c-0.014,0.015-0.023,0.021-0.036,0.027
			C200.429-226.761,200.402-226.753,200.35-226.746z"/>
	</g>
</g>
</svg>
